<svg xmlns="http://www.w3.org/2000/svg" width="33" height="33" viewBox="0 0 33 33" fill="none">
  <path opacity="0.5" d="M28.875 21.9977V13.7476C28.875 9.85852 28.875 7.91398 27.6668 6.70579C26.6102 5.64927 24.9906 5.51665 22 5.5H11C8.00933 5.51665 6.38971 5.64927 5.33318 6.70579C4.125 7.91398 4.125 9.85852 4.125 13.7476V21.9977C4.125 25.8867 4.125 27.8312 5.33318 29.0394C6.54137 30.2477 8.48591 30.2477 12.375 30.2477H20.625C24.514 30.2477 26.4586 30.2477 27.6668 29.0394C28.875 27.8312 28.875 25.8867 28.875 21.9977Z" fill="#1C274C"/>
  <path d="M11 4.8125C11 3.67341 11.9234 2.75 13.0625 2.75H19.9375C21.0766 2.75 22 3.67341 22 4.8125V6.1875C22 7.32659 21.0766 8.25 19.9375 8.25H13.0625C11.9234 8.25 11 7.32659 11 6.1875V4.8125Z" fill="#1C274C"/>
  <path fill-rule="evenodd" clip-rule="evenodd" d="M16.5 12.7188C17.0695 12.7188 17.5312 13.1805 17.5312 13.75V16.8437H20.625C21.1945 16.8437 21.6562 17.3055 21.6562 17.875C21.6562 18.4445 21.1945 18.9062 20.625 18.9062H17.5312V22C17.5312 22.5695 17.0695 23.0312 16.5 23.0312C15.9305 23.0312 15.4687 22.5695 15.4687 22V18.9062H12.375C11.8055 18.9062 11.3438 18.4445 11.3438 17.875C11.3438 17.3055 11.8055 16.8437 12.375 16.8437H15.4687V13.75C15.4687 13.1805 15.9305 12.7188 16.5 12.7188Z" fill="#1C274C"/>
</svg>