<svg xmlns="http://www.w3.org/2000/svg" width="33" height="33" viewBox="0 0 33 33" fill="none">
  <path d="M22 8.25C22 11.2876 19.5375 13.75 16.5 13.75C13.4624 13.75 11 11.2876 11 8.25C11 5.21243 13.4624 2.75 16.5 2.75C19.5375 2.75 22 5.21243 22 8.25Z" fill="black"/>
  <path opacity="0.5" d="M19.9064 30.1411C18.908 30.2126 17.7782 30.25 16.5 30.25C5.5 30.25 5.5 27.4798 5.5 24.0625C5.5 20.6452 10.4249 17.875 16.5 17.875C20.4608 17.875 23.9327 19.0526 25.8695 20.8191C25.1597 20.625 24.1638 20.625 22.6875 20.625C20.4189 20.625 19.2845 20.625 18.5798 21.3298C17.875 22.0345 17.875 23.1689 17.875 25.4375C17.875 27.7061 17.875 28.8405 18.5798 29.5452C18.9064 29.8719 19.3252 30.047 19.9064 30.1411Z" fill="black"/>
  <path fill-rule="evenodd" clip-rule="evenodd" d="M22.6875 30.25C20.4189 30.25 19.2845 30.25 18.5798 29.5452C17.875 28.8405 17.875 27.7061 17.875 25.4375C17.875 23.1689 17.875 22.0345 18.5798 21.3298C19.2845 20.625 20.4189 20.625 22.6875 20.625C24.9561 20.625 26.0905 20.625 26.7952 21.3298C27.5 22.0345 27.5 23.1689 27.5 25.4375C27.5 27.7061 27.5 28.8405 26.7952 29.5452C26.0905 30.25 24.9561 30.25 22.6875 30.25ZM23.4895 23.2986C23.4895 22.8557 23.1305 22.4965 22.6875 22.4965C22.2445 22.4965 21.8855 22.8557 21.8855 23.2986V24.6355H20.5485C20.1057 24.6355 19.7465 24.9945 19.7465 25.4375C19.7465 25.8805 20.1057 26.2395 20.5485 26.2395H21.8855V27.5764C21.8855 28.0193 22.2445 28.3785 22.6875 28.3785C23.1305 28.3785 23.4895 28.0193 23.4895 27.5764V26.2395H24.8264C25.2693 26.2395 25.6285 25.8805 25.6285 25.4375C25.6285 24.9945 25.2693 24.6355 24.8264 24.6355H23.4895V23.2986Z" fill="black"/>
</svg>