<svg xmlns="http://www.w3.org/2000/svg" width="33" height="33" viewBox="0 0 33 33" fill="none">
  <path d="M30.25 5.5V9.625C30.25 10.3543 29.9603 11.0538 29.4445 11.5695C28.9288 12.0853 28.2293 12.375 27.5 12.375H20.625C19.8957 12.375 19.1962 12.0853 18.6805 11.5695C18.1647 11.0538 17.875 10.3543 17.875 9.625V5.5C17.875 4.77065 18.1647 4.07118 18.6805 3.55546C19.1962 3.03973 19.8957 2.75 20.625 2.75H27.5C28.2293 2.75 28.9288 3.03973 29.4445 3.55546C29.9603 4.07118 30.25 4.77065 30.25 5.5ZM12.375 20.625H5.5C4.77065 20.625 4.07118 20.9147 3.55546 21.4305C3.03973 21.9462 2.75 22.6457 2.75 23.375V27.5C2.75 28.2293 3.03973 28.9288 3.55546 29.4445C4.07118 29.9603 4.77065 30.25 5.5 30.25H12.375C13.1043 30.25 13.8038 29.9603 14.3195 29.4445C14.8353 28.9288 15.125 28.2293 15.125 27.5V23.375C15.125 22.6457 14.8353 21.9462 14.3195 21.4305C13.8038 20.9147 13.1043 20.625 12.375 20.625Z" fill="#1C274C"/>
  <path d="M15.125 5.5V15.125C15.125 15.8543 14.8353 16.5538 14.3195 17.0695C13.8038 17.5853 13.1043 17.875 12.375 17.875H5.5C4.77065 17.875 4.07118 17.5853 3.55546 17.0695C3.03973 16.5538 2.75 15.8543 2.75 15.125V5.5C2.75 4.77065 3.03973 4.07118 3.55546 3.55546C4.07118 3.03973 4.77065 2.75 5.5 2.75H12.375C13.1043 2.75 13.8038 3.03973 14.3195 3.55546C14.8353 4.07118 15.125 4.77065 15.125 5.5ZM27.5 15.125H20.625C19.8957 15.125 19.1962 15.4147 18.6805 15.9305C18.1647 16.4462 17.875 17.1457 17.875 17.875V27.5C17.875 28.2293 18.1647 28.9288 18.6805 29.4445C19.1962 29.9603 19.8957 30.25 20.625 30.25H27.5C28.2293 30.25 28.9288 29.9603 29.4445 29.4445C29.9603 28.9288 30.25 28.2293 30.25 27.5V17.875C30.25 17.1457 29.9603 16.4462 29.4445 15.9305C28.9288 15.4147 28.2293 15.125 27.5 15.125Z" fill="#1C274C"/>
</svg>