<svg xmlns="http://www.w3.org/2000/svg" width="33" height="33" viewBox="0 0 33 33" fill="none">
  <path opacity="0.5" d="M18.7396 28.1487L17.9942 29.4081C17.3298 30.5305 15.6702 30.5305 15.0058 29.4081L14.2604 28.1487C13.6823 27.1719 13.3932 26.6837 12.9288 26.4135C12.4645 26.1434 11.8799 26.1334 10.7107 26.1133C8.98455 26.0835 7.90197 25.9777 6.99405 25.6017C5.30948 24.9039 3.9711 23.5656 3.27332 21.8809C2.75 20.6176 2.75 19.0158 2.75 15.8125V14.4375C2.75 9.93653 2.75 7.68604 3.7631 6.03283C4.32998 5.10775 5.10775 4.32998 6.03283 3.7631C7.68604 2.75 9.93653 2.75 14.4375 2.75H18.5625C23.0634 2.75 25.3139 2.75 26.9672 3.7631C27.8923 4.32998 28.67 5.10775 29.2369 6.03283C30.25 7.68604 30.25 9.93653 30.25 14.4375V15.8125C30.25 19.0158 30.25 20.6176 29.7267 21.8809C29.0289 23.5656 27.6906 24.9039 26.0059 25.6017C25.098 25.9777 24.0155 26.0835 22.2893 26.1133C21.12 26.1334 20.5355 26.1434 20.0711 26.4135C19.6068 26.6835 19.3176 27.1719 18.7396 28.1487Z" fill="#1C274C"/>
  <path d="M15.1114 19.6738C13.287 18.3293 10.3125 15.7677 10.3125 13.3578C10.3125 9.67669 13.7157 8.30235 16.5 11.146C19.2842 8.30235 22.6875 9.67669 22.6875 13.3578C22.6875 15.7677 19.713 18.3293 17.8886 19.6738C17.2642 20.1341 16.952 20.3642 16.5 20.3642C16.048 20.3642 15.7358 20.1341 15.1114 19.6738Z" fill="#1C274C"/>
</svg>