<svg xmlns="http://www.w3.org/2000/svg" width="33" height="33" viewBox="0 0 33 33" fill="none">
  <path d="M15.2381 26.8207H17.5164L17.6022 22.4436H15.1528L15.2381 26.8207Z" fill="#1C274C"/>
  <path d="M26.7879 16.8203H24.0439L23.8296 20.6123H26.4552L26.7879 16.8203Z" fill="#1C274C"/>
  <path d="M25.9511 26.3462L26.2939 22.4436H23.7255L23.478 26.8207H25.4326C25.702 26.8207 25.9269 26.6148 25.9511 26.3462Z" fill="#1C274C"/>
  <path d="M22.2069 16.8203H19.5493L19.4741 20.6123H21.9926L22.2069 16.8203Z" fill="#1C274C"/>
  <path d="M21.8895 22.4436H19.4389L19.353 26.8207H21.6421L21.8895 22.4436Z" fill="#1C274C"/>
  <path d="M17.6383 20.6123L17.713 16.8203H15.0425L15.1165 20.6123H17.6383Z" fill="#1C274C"/>
  <path d="M11.1138 26.8207H13.4022L13.3164 22.4436H10.8652L11.1138 26.8207Z" fill="#1C274C"/>
  <path d="M13.2802 20.6123L13.2061 16.8203H10.5474L10.7622 20.6123H13.2802Z" fill="#1C274C"/>
  <path d="M6.80412 26.3462C6.8272 26.6149 7.05272 26.8208 7.322 26.8208H9.27609L9.02924 22.4437H6.46143L6.80412 26.3462Z" fill="#1C274C"/>
  <path d="M8.92562 20.6123L8.71131 16.8203H5.96729L6.30057 20.6123H8.92562Z" fill="#1C274C"/>
  <path d="M31.3141 11.0916H27.9036H25.1809H22.2052L27.2528 7.37537L27.2522 7.37421C27.5816 7.14192 27.839 6.83899 28.0118 6.50126C28.188 6.15675 28.2789 5.77642 28.2795 5.39157C28.2795 4.91577 28.1375 4.42993 27.8469 4.01027L27.8475 4.01079L27.6197 3.6815L27.6186 3.68092C27.3852 3.3426 27.0755 3.07892 26.7304 2.90277C26.386 2.72662 26.0062 2.63574 25.6213 2.63574C25.145 2.63516 24.6592 2.77715 24.2406 3.06829L24.2311 3.0739L14.2048 10.456L14.2059 10.4566C13.9563 10.6327 13.7482 10.8493 13.5865 11.0916H7.81913H5.09586H1.6859C0.754617 11.0916 0 11.8462 0 12.7775V13.5686C0 14.4679 0.705182 15.2011 1.59328 15.2494L3.2242 27.283H3.22478C3.3252 28.1549 3.74492 28.9263 4.35755 29.475C4.97469 30.0293 5.79434 30.3642 6.68076 30.3642H26.074C26.9598 30.3642 27.7801 30.0293 28.3973 29.475C29.0099 28.9263 29.4296 28.1549 29.5305 27.283L31.1614 15.2544H31.314C32.2448 15.2544 32.9999 14.4993 32.9999 13.5686V12.7775C33 11.8462 32.2449 11.0916 31.3141 11.0916ZM14.9156 12.0824C14.9728 11.973 15.0536 11.877 15.1647 11.7996L15.1759 11.7924L25.1831 4.42432C25.32 4.3306 25.4692 4.28742 25.6213 4.28742C25.7453 4.28742 25.8686 4.31662 25.978 4.37327C26.088 4.42935 26.1845 4.51069 26.2619 4.6218L26.2608 4.62122L26.4891 4.95058V4.95116C26.584 5.08857 26.6271 5.23785 26.6277 5.39157C26.6277 5.51493 26.5985 5.63836 26.5419 5.74831C26.4846 5.85834 26.4039 5.95476 26.2927 6.03165L26.2838 6.03784L16.2751 13.407C16.1382 13.5007 15.989 13.5439 15.8363 13.5445C15.7129 13.5445 15.5895 13.5147 15.4795 13.4581C15.3696 13.4019 15.2742 13.32 15.1968 13.2095L14.9685 12.8802V12.8808C14.8736 12.7433 14.831 12.5935 14.8305 12.4398C14.8304 12.3164 14.8595 12.1923 14.9156 12.0824ZM27.8923 27.0732L27.8912 27.0827C27.8401 27.5484 27.6207 27.9524 27.2943 28.2452C26.9672 28.5375 26.5425 28.712 26.074 28.7126H6.68082C6.21296 28.7126 5.78705 28.5375 5.4606 28.2452C5.13459 27.9524 4.91468 27.5484 4.86363 27.0827L4.86254 27.0743L4.86138 27.0614L3.28601 15.4418H29.4689L27.8923 27.0732Z" fill="#1C274C"/>
</svg>