<svg xmlns="http://www.w3.org/2000/svg" width="30" height="30" viewBox="0 0 30 30" fill="none">
  <g filter="url(#filter0_d_164_1198)">
    <path d="M11.6719 17.33C11.6719 18.62 12.6619 19.66 13.8919 19.66H16.4019C17.4719 19.66 18.3419 18.75 18.3419 17.63C18.3419 16.41 17.8119 15.98 17.0219 15.7L12.9919 14.3C12.2019 14.02 11.6719 13.59 11.6719 12.37C11.6719 11.25 12.5419 10.34 13.6119 10.34H16.1219C17.3519 10.34 18.3419 11.38 18.3419 12.67M14.9999 9V21" stroke="black" stroke-width="1.5" stroke-linecap="round" stroke-linejoin="round"/>
    <path d="M15 25C20.523 25 25 20.523 25 15C25 9.477 20.523 5 15 5C9.477 5 5 9.477 5 15C5 20.523 9.477 25 15 25Z" stroke="black" stroke-width="1.5" stroke-linecap="round" stroke-linejoin="round"/>
  </g>
  <defs>
    <filter id="filter0_d_164_1198" x="0.25" y="0.25" width="29.5" height="29.5" filterUnits="userSpaceOnUse" color-interpolation-filters="sRGB">
      <feFlood flood-opacity="0" result="BackgroundImageFix"/>
      <feColorMatrix in="SourceAlpha" type="matrix" values="0 0 0 0 0 0 0 0 0 0 0 0 0 0 0 0 0 0 127 0" result="hardAlpha"/>
      <feOffset/>
      <feGaussianBlur stdDeviation="2"/>
      <feComposite in2="hardAlpha" operator="out"/>
      <feColorMatrix type="matrix" values="0 0 0 0 0 0 0 0 0 0 0 0 0 0 0 0 0 0 0.25 0"/>
      <feBlend mode="normal" in2="BackgroundImageFix" result="effect1_dropShadow_164_1198"/>
      <feBlend mode="normal" in="SourceGraphic" in2="effect1_dropShadow_164_1198" result="shape"/>
    </filter>
  </defs>
</svg>